# xmcd
#
# Track frame offsets: 
#        150
#        14877
#        26716
#        45691
#        62956
#        84031
#        99592
#        113816
#        127841
#
# Disc length: 1919 seconds
#
# Revision: 0
# Processed by: cddbd v1.5.2PL0 Copyright (c) Steve Scherf et al.
# Submitted via: ExactAudioCopyFreeDBPlugin 1.0
#
DISCID=70077d09
DTITLE=Lincoln Durham - And Into Heaven Came The Night
DYEAR=2018
DGENRE=Blues
TTITLE0=Heaven
TTITLE1=Preacher
TTITLE2=Hate
TTITLE3=Grave
TTITLE4=Laugh
TTITLE5=Death
TTITLE6=Gnaw
TTITLE7=Feather
TTITLE8=Hero
EXTD=
EXTT0=
EXTT1=
EXTT2=
EXTT3=
EXTT4=
EXTT5=
EXTT6=
EXTT7=
EXTT8=
PLAYORDER=
